<svg width="54" height="56" viewBox="0 0 54 56" fill="none" xmlns="http://www.w3.org/2000/svg">
<g filter="url(#filter0_d)">
<path d="M32.2308 40.8791V36.1161C32.2769 35.5292 32.1976 34.9392 31.9982 34.3853C31.7987 33.8315 31.4836 33.3264 31.0738 32.9037C34.9385 32.473 39 31.0084 39 24.2884C38.9997 22.57 38.3387 20.9175 37.1538 19.673C37.7149 18.1696 37.6752 16.5079 37.0431 15.033C37.0431 15.033 35.5908 14.6022 32.2308 16.8545C29.4099 16.09 26.4363 16.09 23.6154 16.8545C20.2554 14.6022 18.8031 15.033 18.8031 15.033C18.1709 16.5079 18.1313 18.1696 18.6923 19.673C17.4986 20.9268 16.837 22.5942 16.8462 24.3253C16.8462 30.9961 20.9077 32.4607 24.7723 32.9407C24.3674 33.3591 24.0551 33.8581 23.8558 34.4052C23.6564 34.9523 23.5745 35.5352 23.6154 36.1161V40.8791M23.6154 37.1868C17.4615 39.033 17.4615 34.1099 15 33.4945L23.6154 37.1868Z" stroke="#606C8B" stroke-width="1.2" stroke-linecap="round" stroke-linejoin="round"/>
</g>
<defs>
<filter id="filter0_d" x="-4" y="0" width="62" height="63.8791" filterUnits="userSpaceOnUse" color-interpolation-filters="sRGB">
<feFlood flood-opacity="0" result="BackgroundImageFix"/>
<feColorMatrix in="SourceAlpha" type="matrix" values="0 0 0 0 0 0 0 0 0 0 0 0 0 0 0 0 0 0 127 0"/>
<feOffset dy="4"/>
<feGaussianBlur stdDeviation="2"/>
<feColorMatrix type="matrix" values="0 0 0 0 0 0 0 0 0 0 0 0 0 0 0 0 0 0 0.25 0"/>
<feBlend mode="normal" in2="BackgroundImageFix" result="effect1_dropShadow"/>
<feBlend mode="normal" in="SourceGraphic" in2="effect1_dropShadow" result="shape"/>
</filter>
</defs>
</svg>
