<svg width="54" height="55" viewBox="0 0 54 55" fill="none" xmlns="http://www.w3.org/2000/svg">
<g filter="url(#filter0_d)">
<path d="M33 15.3691H21C17.6863 15.3691 15 18.0554 15 21.3691V33.3691C15 36.6828 17.6863 39.3691 21 39.3691H33C36.3137 39.3691 39 36.6828 39 33.3691V21.3691C39 18.0554 36.3137 15.3691 33 15.3691Z" stroke="#63718A" stroke-width="1.2" stroke-linecap="round" stroke-linejoin="round"/>
<path d="M31.8 26.6133C31.9481 27.612 31.7775 28.6319 31.3125 29.5281C30.8475 30.4242 30.1118 31.151 29.21 31.6049C28.3082 32.0588 27.2862 32.2168 26.2894 32.0564C25.2926 31.896 24.3718 31.4254 23.6578 30.7115C22.9439 29.9975 22.4733 29.0767 22.3129 28.0799C22.1525 27.0831 22.3105 26.0611 22.7644 25.1593C23.2183 24.2575 23.9451 23.5217 24.8412 23.0567C25.7374 22.5917 26.7573 22.4212 27.756 22.5693C28.7747 22.7203 29.7179 23.195 30.4461 23.9232C31.1743 24.6514 31.649 25.5946 31.8 26.6133Z" stroke="#63718A" stroke-width="1.2" stroke-linecap="round" stroke-linejoin="round"/>
<path d="M33.6001 20.7692H33.6121" stroke="#63718A" stroke-width="1.2" stroke-linecap="round" stroke-linejoin="round"/>
</g>
<defs>
<filter id="filter0_d" x="-4" y="0.369141" width="62" height="62" filterUnits="userSpaceOnUse" color-interpolation-filters="sRGB">
<feFlood flood-opacity="0" result="BackgroundImageFix"/>
<feColorMatrix in="SourceAlpha" type="matrix" values="0 0 0 0 0 0 0 0 0 0 0 0 0 0 0 0 0 0 127 0"/>
<feOffset dy="4"/>
<feGaussianBlur stdDeviation="2"/>
<feColorMatrix type="matrix" values="0 0 0 0 0 0 0 0 0 0 0 0 0 0 0 0 0 0 0.25 0"/>
<feBlend mode="normal" in2="BackgroundImageFix" result="effect1_dropShadow"/>
<feBlend mode="normal" in="SourceGraphic" in2="effect1_dropShadow" result="shape"/>
</filter>
</defs>
</svg>
